<svg width="405" height="353" viewBox="0 0 405 353" fill="none" xmlns="http://www.w3.org/2000/svg">
<g filter="url(#filter0_d_645_1122)">
<path fill-rule="evenodd" clip-rule="evenodd" d="M376 351C384.401 351 388.601 351 391.81 349.365C394.632 347.927 396.927 345.632 398.365 342.81C400 339.601 400 335.401 400 327V37.4162H1V327C1 335.401 1 339.601 2.6349 342.81C4.073 345.632 6.36771 347.927 9.19014 349.365C12.3988 351 16.5992 351 25 351H376Z" fill="white"/>
<path d="M400 25C400 16.5992 400 12.3988 398.365 9.19014C396.927 6.36771 394.632 4.073 391.81 2.6349C388.601 1 384.401 1 376 1H25C16.5992 1 12.3988 1 9.19014 2.6349C6.36771 4.073 4.073 6.36771 2.6349 9.19014C1 12.3988 1 16.5992 1 25V37.4162H400V25Z" fill="#002790"/>
<path d="M9.19014 349.365L9.64413 348.474L9.19014 349.365ZM2.6349 342.81L1.7439 343.264L2.6349 342.81ZM391.81 349.365L391.356 348.474L391.81 349.365ZM398.365 342.81L399.256 343.264L398.365 342.81ZM391.81 2.6349L391.356 3.52591L391.81 2.6349ZM398.365 9.19014L399.256 8.73615L398.365 9.19014ZM25 2H376V0H25V2ZM376 350H25V352H376V350ZM2 327V37.4162H0V327H2ZM2 37.4162V25H0V37.4162H2ZM399 25V37.4162H401V25H399ZM399 37.4162V327H401V37.4162H399ZM1 38.4162H400V36.4162H1V38.4162ZM25 350C20.7831 350 17.6806 349.999 15.2295 349.799C12.79 349.6 11.084 349.208 9.64413 348.474L8.73615 350.256C10.505 351.157 12.5035 351.583 15.0666 351.792C17.618 352.001 20.8161 352 25 352V350ZM0 327C0 331.184 -0.000777721 334.382 0.207684 336.933C0.417099 339.497 0.842644 341.495 1.7439 343.264L3.52591 342.356C2.79226 340.916 2.40035 339.21 2.20104 336.771C2.00078 334.319 2 331.217 2 327H0ZM9.64413 348.474C7.00986 347.132 4.86814 344.99 3.52591 342.356L1.7439 343.264C3.27787 346.274 5.72556 348.722 8.73615 350.256L9.64413 348.474ZM376 352C380.184 352 383.382 352.001 385.933 351.792C388.497 351.583 390.495 351.157 392.264 350.256L391.356 348.474C389.916 349.208 388.21 349.6 385.771 349.799C383.319 349.999 380.217 350 376 350V352ZM399 327C399 331.217 398.999 334.319 398.799 336.771C398.6 339.21 398.208 340.916 397.474 342.356L399.256 343.264C400.157 341.495 400.583 339.497 400.792 336.933C401.001 334.382 401 331.184 401 327H399ZM392.264 350.256C395.274 348.722 397.722 346.274 399.256 343.264L397.474 342.356C396.132 344.99 393.99 347.132 391.356 348.474L392.264 350.256ZM376 2C380.217 2 383.319 2.00078 385.771 2.20104C388.21 2.40035 389.916 2.79226 391.356 3.52591L392.264 1.7439C390.495 0.842644 388.497 0.417099 385.933 0.207684C383.382 -0.000777721 380.184 0 376 0V2ZM401 25C401 20.8161 401.001 17.618 400.792 15.0666C400.583 12.5035 400.157 10.505 399.256 8.73615L397.474 9.64413C398.208 11.084 398.6 12.79 398.799 15.2295C398.999 17.6806 399 20.7831 399 25H401ZM391.356 3.52591C393.99 4.86814 396.132 7.00986 397.474 9.64413L399.256 8.73615C397.722 5.72556 395.274 3.27787 392.264 1.7439L391.356 3.52591ZM25 0C20.8161 0 17.618 -0.000777721 15.0666 0.207684C12.5035 0.417099 10.505 0.842644 8.73615 1.7439L9.64413 3.52591C11.084 2.79226 12.79 2.40035 15.2295 2.20104C17.6806 2.00078 20.7831 2 25 2V0ZM2 25C2 20.7831 2.00078 17.6806 2.20104 15.2295C2.40035 12.79 2.79226 11.084 3.52591 9.64413L1.7439 8.73615C0.842644 10.505 0.417099 12.5035 0.207684 15.0666C-0.000777721 17.618 0 20.8161 0 25H2ZM8.73615 1.7439C5.72556 3.27787 3.27787 5.72556 1.7439 8.73615L3.52591 9.64413C4.86814 7.00986 7.00986 4.86814 9.64413 3.52591L8.73615 1.7439Z" fill="#555555"/>
</g>
<defs>
<filter id="filter0_d_645_1122" x="0" y="0" width="405" height="353" filterUnits="userSpaceOnUse" color-interpolation-filters="sRGB">
<feFlood flood-opacity="0" result="BackgroundImageFix"/>
<feColorMatrix in="SourceAlpha" type="matrix" values="0 0 0 0 0 0 0 0 0 0 0 0 0 0 0 0 0 0 127 0" result="hardAlpha"/>
<feOffset dx="4" dy="1"/>
<feComposite in2="hardAlpha" operator="out"/>
<feColorMatrix type="matrix" values="0 0 0 0 0.333333 0 0 0 0 0.333333 0 0 0 0 0.333333 0 0 0 1 0"/>
<feBlend mode="normal" in2="BackgroundImageFix" result="effect1_dropShadow_645_1122"/>
<feBlend mode="normal" in="SourceGraphic" in2="effect1_dropShadow_645_1122" result="shape"/>
</filter>
</defs>
</svg>
