<svg width="405" height="552" viewBox="0 0 405 552" fill="none" xmlns="http://www.w3.org/2000/svg">
<g filter="url(#filter0_d_645_1141)">
<path fill-rule="evenodd" clip-rule="evenodd" d="M376 550C384.401 550 388.601 550 391.81 548.365C394.632 546.927 396.927 544.632 398.365 541.81C400 538.601 400 534.401 400 526V36.7398H1V526C1 534.401 1 538.601 2.6349 541.81C4.073 544.632 6.36771 546.927 9.19014 548.365C12.3988 550 16.5992 550 25 550H376Z" fill="white"/>
<path d="M400 25C400 16.5992 400 12.3988 398.365 9.19014C396.927 6.36771 394.632 4.073 391.81 2.6349C388.601 1 384.401 1 376 1H25C16.5992 1 12.3988 1 9.19014 2.6349C6.36771 4.073 4.073 6.36771 2.6349 9.19014C1 12.3988 1 16.5992 1 25V36.7398H400V25Z" fill="#002790"/>
<path d="M9.19014 548.365L8.73615 549.256L9.19014 548.365ZM2.6349 541.81L1.7439 542.264L2.6349 541.81ZM391.81 548.365L392.264 549.256L391.81 548.365ZM398.365 541.81L397.474 541.356L398.365 541.81ZM391.81 2.6349L391.356 3.52591L391.81 2.6349ZM398.365 9.19014L399.256 8.73615L398.365 9.19014ZM25 2H376V0H25V2ZM376 549H25V551H376V549ZM2 526V36.7398H0V526H2ZM2 36.7398V25H0V36.7398H2ZM399 25V36.7398H401V25H399ZM399 36.7398V526H401V36.7398H399ZM1 37.7398H400V35.7398H1V37.7398ZM25 549C20.7831 549 17.6806 548.999 15.2295 548.799C12.79 548.6 11.084 548.208 9.64413 547.474L8.73615 549.256C10.505 550.157 12.5035 550.583 15.0666 550.792C17.618 551.001 20.8161 551 25 551V549ZM0 526C0 530.184 -0.000777721 533.382 0.207684 535.933C0.417099 538.497 0.842644 540.495 1.7439 542.264L3.52591 541.356C2.79226 539.916 2.40035 538.21 2.20104 535.771C2.00078 533.319 2 530.217 2 526H0ZM9.64413 547.474C7.00986 546.132 4.86814 543.99 3.52591 541.356L1.7439 542.264C3.27787 545.274 5.72556 547.722 8.73615 549.256L9.64413 547.474ZM376 551C380.184 551 383.382 551.001 385.933 550.792C388.497 550.583 390.495 550.157 392.264 549.256L391.356 547.474C389.916 548.208 388.21 548.6 385.771 548.799C383.319 548.999 380.217 549 376 549V551ZM399 526C399 530.217 398.999 533.319 398.799 535.771C398.6 538.21 398.208 539.916 397.474 541.356L399.256 542.264C400.157 540.495 400.583 538.497 400.792 535.933C401.001 533.382 401 530.184 401 526H399ZM392.264 549.256C395.274 547.722 397.722 545.274 399.256 542.264L397.474 541.356C396.132 543.99 393.99 546.132 391.356 547.474L392.264 549.256ZM376 2C380.217 2 383.319 2.00078 385.771 2.20104C388.21 2.40035 389.916 2.79226 391.356 3.52591L392.264 1.7439C390.495 0.842644 388.497 0.417099 385.933 0.207684C383.382 -0.000777721 380.184 0 376 0V2ZM401 25C401 20.8161 401.001 17.618 400.792 15.0666C400.583 12.5035 400.157 10.505 399.256 8.73615L397.474 9.64413C398.208 11.084 398.6 12.79 398.799 15.2295C398.999 17.6806 399 20.7831 399 25H401ZM391.356 3.52591C393.99 4.86814 396.132 7.00986 397.474 9.64413L399.256 8.73615C397.722 5.72556 395.274 3.27787 392.264 1.7439L391.356 3.52591ZM25 0C20.8161 0 17.618 -0.000777721 15.0666 0.207684C12.5035 0.417099 10.505 0.842644 8.73615 1.7439L9.64413 3.52591C11.084 2.79226 12.79 2.40035 15.2295 2.20104C17.6806 2.00078 20.7831 2 25 2V0ZM2 25C2 20.7831 2.00078 17.6806 2.20104 15.2295C2.40035 12.79 2.79226 11.084 3.52591 9.64413L1.7439 8.73615C0.842644 10.505 0.417099 12.5035 0.207684 15.0666C-0.000777721 17.618 0 20.8161 0 25H2ZM8.73615 1.7439C5.72556 3.27787 3.27787 5.72556 1.7439 8.73615L3.52591 9.64413C4.86814 7.00986 7.00986 4.86814 9.64413 3.52591L8.73615 1.7439Z" fill="#555555"/>
</g>
<defs>
<filter id="filter0_d_645_1141" x="0" y="0" width="405" height="552" filterUnits="userSpaceOnUse" color-interpolation-filters="sRGB">
<feFlood flood-opacity="0" result="BackgroundImageFix"/>
<feColorMatrix in="SourceAlpha" type="matrix" values="0 0 0 0 0 0 0 0 0 0 0 0 0 0 0 0 0 0 127 0" result="hardAlpha"/>
<feOffset dx="4" dy="1"/>
<feComposite in2="hardAlpha" operator="out"/>
<feColorMatrix type="matrix" values="0 0 0 0 0.333333 0 0 0 0 0.333333 0 0 0 0 0.333333 0 0 0 1 0"/>
<feBlend mode="normal" in2="BackgroundImageFix" result="effect1_dropShadow_645_1141"/>
<feBlend mode="normal" in="SourceGraphic" in2="effect1_dropShadow_645_1141" result="shape"/>
</filter>
</defs>
</svg>
