<svg width="237" height="85" viewBox="0 0 237 85" fill="none" xmlns="http://www.w3.org/2000/svg">
<path fill-rule="evenodd" clip-rule="evenodd" d="M16.1306 0L12.093 11.0528H68.0177L72.0553 0H16.1306ZM10.0767 16.5792L6.03912 27.632H61.9688L66.0063 16.5792H10.0767ZM4.03265 33.1585L0 44.2113H55.9247L59.9574 33.1585H4.03758H4.03265Z" fill="#009FDF"/>
<path fill-rule="evenodd" clip-rule="evenodd" d="M118.895 48.4215V48.6532C121.453 49.5898 123.893 51.2315 125.17 52.2865C129.124 55.5698 130.864 59.9032 130.864 65.5233C130.864 74.7816 125.984 81.4567 117.963 83.5667C115.523 84.2667 112.964 84.5033 108.197 84.5033H83.9071V16.7913H105.411C109.828 16.7913 112.851 17.023 115.523 17.7279C123.312 19.8379 128.424 25.2263 128.424 33.7797C128.424 38.3497 126.797 42.2197 124.125 44.7931C122.962 45.9664 121.335 47.3714 118.895 48.4264V48.4215ZM97.3904 55.5698V73.3766H106.688C109.478 73.3766 112.032 73.1449 113.896 71.3849C115.754 69.6249 116.568 67.4015 116.568 64.4732C116.568 62.2498 115.986 60.1398 114.822 58.6165C112.846 56.1565 110.405 55.5698 106.22 55.5698H97.3854H97.3904ZM97.272 43.8514H104.83C107.156 43.8514 108.315 43.8514 109.478 43.5014C112.619 42.5647 114.596 39.7547 114.596 35.8847C114.596 31.3197 112.5 29.323 109.478 28.3864C108.197 28.0363 106.925 27.918 104.366 27.918H97.277V43.8514H97.272ZM151.092 84.5083V28.1547H131.683V16.7913H185.621L181.785 28.1547H164.58V84.5083H151.097H151.092ZM189.801 84.5083V16.7913H233.51L229.674 28.1547H203.171V43.1514H213.982C222.698 43.1514 227.234 45.2614 230.374 47.9531C232.815 50.0631 237 54.7465 237 64.0049C237 73.2632 232.701 78.1783 229.097 80.7566C224.917 83.685 220.495 84.5083 211.547 84.5083H189.806H189.801ZM203.171 73.1449H213.287C217.123 73.1449 219.445 72.2082 221.076 70.0982C221.89 69.0432 223.053 67.1698 223.053 63.6548C223.053 60.1398 221.89 57.6798 219.568 55.9198C218.173 54.8648 216.314 54.2831 213.174 54.2831H203.176V73.1449H203.171Z" fill="#0A2973"/>
</svg>
