<svg width="140" height="148" viewBox="0 0 140 148" fill="none" xmlns="http://www.w3.org/2000/svg">
<path d="M1 1V112.006H119.326V1H1ZM111.227 104.166H8.71017V8.73613H111.227V104.166Z" fill="white" stroke="#231F20" stroke-linejoin="bevel"/>
<path d="M53.5174 112.006V117.301H24.8574L1 112.006H53.5174Z" fill="white" stroke="#231F20" stroke-linejoin="bevel"/>
<path d="M139.497 117.301H76.0503V112.006H119.326L139.497 117.301Z" fill="white" stroke="#231F20" stroke-linejoin="bevel"/>
<path d="M139.498 30.1533V43.0814L119.327 31.4772V1L139.498 30.1533Z" fill="white" stroke="#231F20" stroke-linejoin="bevel"/>
<path d="M139.498 43.0815V49.3898L119.327 38.4346V31.4773L139.498 43.0815Z" fill="white" stroke="#231F20" stroke-linejoin="bevel"/>
<path d="M139.498 49.3898V109.02L119.327 102.374V38.4346L139.498 49.3898Z" fill="white" stroke="#231F20" stroke-linejoin="bevel"/>
<path d="M139.498 109.02V117.302L119.327 112.006V102.375L139.498 109.02Z" fill="white" stroke="#231F20" stroke-linejoin="bevel"/>
<path d="M76.051 112.006H69.7427V134.565H76.051V112.006Z" fill="white" stroke="#231F20" stroke-linejoin="bevel"/>
<path d="M69.7432 112.006H53.5181V134.565H69.7432V112.006Z" fill="white" stroke="#231F20" stroke-linejoin="bevel"/>
<path d="M111.228 8.73608H8.71118V104.166H111.228V8.73608Z" fill="white" stroke="#231F20" stroke-linejoin="bevel"/>
<path d="M119.326 134.565H1V142.846H119.326V134.565Z" fill="white" stroke="#231F20" stroke-linejoin="bevel"/>
<path d="M139.497 147H19.0942L1 142.846H119.326L139.497 147Z" fill="white" stroke="#231F20" stroke-linejoin="bevel"/>
<path d="M139.498 139.523V147L119.327 142.846V134.565L139.498 139.523Z" fill="white" stroke="#231F20" stroke-linejoin="bevel"/>
</svg>
