<svg width="167" height="128" viewBox="0 0 167 128" fill="none" xmlns="http://www.w3.org/2000/svg">
<path d="M69.0579 14.7975V82.1222L117.252 97.0434L166.21 82.1222V14.7975L117.641 1L69.0579 14.7975Z" fill="white" stroke="#231F20" stroke-miterlimit="10"/>
<path d="M69.0581 14.7974L117.642 25.8983" stroke="#231F20" stroke-miterlimit="10"/>
<path d="M117.252 97.0433V25.8984" stroke="#231F20" stroke-miterlimit="10"/>
<path d="M166.21 14.7974L117.252 25.8983" stroke="#231F20" stroke-miterlimit="10"/>
<path d="M80.8339 45.179C84.251 45.179 87.0211 41.3558 87.0211 36.6398C87.0211 31.9237 84.251 28.1006 80.8339 28.1006C77.4168 28.1006 74.6467 31.9237 74.6467 36.6398C74.6467 41.3558 77.4168 45.179 80.8339 45.179Z" fill="white" stroke="#231F20" stroke-miterlimit="10"/>
<path d="M80.8339 73.6729C84.251 73.6729 87.0211 69.8497 87.0211 65.1337C87.0211 60.4176 84.251 56.5945 80.8339 56.5945C77.4168 56.5945 74.6467 60.4176 74.6467 65.1337C74.6467 69.8497 77.4168 73.6729 80.8339 73.6729Z" fill="white" stroke="#231F20" stroke-miterlimit="10"/>
<path d="M92.0988 61.4634C95.5159 61.4634 98.2859 57.6403 98.2859 52.9242C98.2859 48.2081 95.5159 44.385 92.0988 44.385C88.6817 44.385 85.9116 48.2081 85.9116 52.9242C85.9116 57.6403 88.6817 61.4634 92.0988 61.4634Z" fill="white" stroke="#231F20" stroke-miterlimit="10"/>
<path d="M104.473 79.2908C107.89 79.2908 110.66 75.4676 110.66 70.7516C110.66 66.0355 107.89 62.2124 104.473 62.2124C101.056 62.2124 98.2856 66.0355 98.2856 70.7516C98.2856 75.4676 101.056 79.2908 104.473 79.2908Z" fill="white" stroke="#231F20" stroke-miterlimit="10"/>
<path d="M104.473 51.0366C107.89 51.0366 110.66 47.2135 110.66 42.4974C110.66 37.7814 107.89 33.9583 104.473 33.9583C101.056 33.9583 98.2856 37.7814 98.2856 42.4974C98.2856 47.2135 101.056 51.0366 104.473 51.0366Z" fill="white" stroke="#231F20" stroke-miterlimit="10"/>
<path d="M117.252 19.232C121.968 19.232 125.791 16.4619 125.791 13.0448C125.791 9.62775 121.968 6.85767 117.252 6.85767C112.536 6.85767 108.712 9.62775 108.712 13.0448C108.712 16.4619 112.536 19.232 117.252 19.232Z" fill="white" stroke="#231F20" stroke-miterlimit="10"/>
<path d="M137.371 52.5498C140.788 52.5498 143.558 48.7267 143.558 44.0106C143.558 39.2946 140.788 35.4714 137.371 35.4714C133.954 35.4714 131.184 39.2946 131.184 44.0106C131.184 48.7267 133.954 52.5498 137.371 52.5498Z" fill="white" stroke="#231F20" stroke-miterlimit="10"/>
<path d="M137.371 72.4146C140.788 72.4146 143.558 68.5914 143.558 63.8754C143.558 59.1593 140.788 55.3362 137.371 55.3362C133.954 55.3362 131.184 59.1593 131.184 63.8754C131.184 68.5914 133.954 72.4146 137.371 72.4146Z" fill="white" stroke="#231F20" stroke-miterlimit="10"/>
<path d="M151.574 69.0886C154.991 69.0886 157.761 65.2655 157.761 60.5494C157.761 55.8334 154.991 52.0103 151.574 52.0103C148.157 52.0103 145.387 55.8334 145.387 60.5494C145.387 65.2655 148.157 69.0886 151.574 69.0886Z" fill="white" stroke="#231F20" stroke-miterlimit="10"/>
<path d="M151.574 49.0142C154.991 49.0142 157.761 45.191 157.761 40.475C157.761 35.7589 154.991 31.9358 151.574 31.9358C148.157 31.9358 145.387 35.7589 145.387 40.475C145.387 45.191 148.157 49.0142 151.574 49.0142Z" fill="white" stroke="#231F20" stroke-miterlimit="10"/>
<path d="M1 45.0741V112.399L49.194 127.32L98.152 112.399V45.0741L49.5685 31.2766L1 45.0741Z" fill="white" stroke="#231F20" stroke-miterlimit="10"/>
<path d="M1 45.0742L49.5685 56.1752" stroke="#231F20" stroke-miterlimit="10"/>
<path d="M49.1938 127.32V56.175" stroke="#231F20" stroke-miterlimit="10"/>
<path d="M98.1518 45.0742L49.1938 56.1752" stroke="#231F20" stroke-miterlimit="10"/>
<path d="M12.7758 75.4558C16.1929 75.4558 18.9629 71.6327 18.9629 66.9166C18.9629 62.2006 16.1929 58.3774 12.7758 58.3774C9.35871 58.3774 6.58862 62.2006 6.58862 66.9166C6.58862 71.6327 9.35871 75.4558 12.7758 75.4558Z" fill="white" stroke="#231F20" stroke-miterlimit="10"/>
<path d="M24.0409 91.74C27.458 91.74 30.2281 87.9169 30.2281 83.2008C30.2281 78.4847 27.458 74.6616 24.0409 74.6616C20.6238 74.6616 17.8538 78.4847 17.8538 83.2008C17.8538 87.9169 20.6238 91.74 24.0409 91.74Z" fill="white" stroke="#231F20" stroke-miterlimit="10"/>
<path d="M36.4001 109.567C39.8171 109.567 42.5872 105.744 42.5872 101.028C42.5872 96.3121 39.8171 92.489 36.4001 92.489C32.983 92.489 30.2129 96.3121 30.2129 101.028C30.2129 105.744 32.983 109.567 36.4001 109.567Z" fill="white" stroke="#231F20" stroke-miterlimit="10"/>
<path d="M49.1935 49.4935C53.9095 49.4935 57.7327 46.7234 57.7327 43.3063C57.7327 39.8892 53.9095 37.1191 49.1935 37.1191C44.4774 37.1191 40.6543 39.8892 40.6543 43.3063C40.6543 46.7234 44.4774 49.4935 49.1935 49.4935Z" fill="white" stroke="#231F20" stroke-miterlimit="10"/>
<path d="M69.3131 82.8264C72.7302 82.8264 75.5003 79.0033 75.5003 74.2872C75.5003 69.5712 72.7302 65.748 69.3131 65.748C65.8961 65.748 63.126 69.5712 63.126 74.2872C63.126 79.0033 65.8961 82.8264 69.3131 82.8264Z" fill="white" stroke="#231F20" stroke-miterlimit="10"/>
<path d="M81.6725 100.654C85.0896 100.654 87.8597 96.8307 87.8597 92.1146C87.8597 87.3986 85.0896 83.5754 81.6725 83.5754C78.2554 83.5754 75.4854 87.3986 75.4854 92.1146C75.4854 96.8307 78.2554 100.654 81.6725 100.654Z" fill="white" stroke="#231F20" stroke-miterlimit="10"/>
</svg>
