<svg width="179" height="178" viewBox="0 0 179 178" fill="none" xmlns="http://www.w3.org/2000/svg">
<path d="M73.5593 177C111.003 177 141.357 146.646 141.357 109.202C141.357 71.7584 111.003 41.4043 73.5593 41.4043C36.1156 41.4043 5.76147 71.7584 5.76147 109.202C5.76147 146.646 36.1156 177 73.5593 177Z" fill="white" stroke="#231F20" stroke-linejoin="bevel"/>
<path d="M68.7978 175.766C106.242 175.766 136.596 145.411 136.596 107.968C136.596 70.524 106.242 40.1699 68.7978 40.1699C31.3541 40.1699 1 70.524 1 107.968C1 145.411 31.3541 175.766 68.7978 175.766Z" fill="white" stroke="#231F20" stroke-linejoin="bevel"/>
<path d="M68.7977 159.757C97.3999 159.757 120.587 136.57 120.587 107.968C120.587 79.3654 97.3999 56.1787 68.7977 56.1787C40.1955 56.1787 17.0088 79.3654 17.0088 107.968C17.0088 136.57 40.1955 159.757 68.7977 159.757Z" fill="white" stroke="#231F20" stroke-linejoin="bevel"/>
<path d="M68.7978 142.984C88.1365 142.984 103.814 127.306 103.814 107.968C103.814 88.629 88.1365 72.9519 68.7978 72.9519C49.4591 72.9519 33.782 88.629 33.782 107.968C33.782 127.306 49.4591 142.984 68.7978 142.984Z" fill="white" stroke="#231F20" stroke-linejoin="bevel"/>
<path d="M68.7979 125.231C78.332 125.231 86.0609 117.502 86.0609 107.968C86.0609 98.4337 78.332 90.7048 68.7979 90.7048C59.2638 90.7048 51.5349 98.4337 51.5349 107.968C51.5349 117.502 59.2638 125.231 68.7979 125.231Z" fill="white" stroke="#231F20" stroke-linejoin="bevel"/>
<path d="M175.981 23.5144L175.472 24.0042L155.72 42.776L137.713 40.5226L68.6607 111.044L66.6621 113.082L65.1729 109.574L136.145 37.4462L132.716 21.7704L153.976 1V23.0049L156.347 23.0637L175.981 23.5144Z" fill="white" stroke="#231F20" stroke-linejoin="bevel"/>
<path d="M136.576 107.341L141.357 108.595" stroke="#231F20" stroke-miterlimit="10"/>
<path d="M111.984 159.737L116.452 161.716" stroke="#231F20" stroke-miterlimit="10"/>
<path d="M115.002 157.582L119.313 159.228" stroke="#231F20" stroke-miterlimit="10"/>
<path d="M178.372 24.0631L158.111 43.3247L140.084 41.0909L70.3067 112.377L66.2898 113.082L68.6608 111.044L137.713 40.5226L155.72 42.776L175.472 24.0043L175.981 23.5144L178.372 24.0631Z" fill="white" stroke="#231F20" stroke-linejoin="bevel"/>
</svg>
