<svg width="164" height="95" viewBox="0 0 164 95" fill="none" xmlns="http://www.w3.org/2000/svg">
<path d="M54.0477 61.085C50.8688 79.8852 41.2825 93.5446 29.9328 93.5446C29.3119 93.5446 28.691 93.4949 28.095 93.4204C36.3403 92.278 43.4679 83.9085 47.5906 71.7641C47.9383 70.7707 48.2611 69.7524 48.5592 68.6845C49.2545 66.2755 49.8258 63.7175 50.2728 61.085H54.0477Z" fill="white" stroke="#231F20" stroke-linejoin="bevel"/>
<path d="M160.889 66.0767C156.989 82.2692 148.098 93.5444 137.792 93.5444C137.146 93.5444 136.5 93.4947 135.855 93.4202C145.391 92.1784 153.438 81.3006 157.114 66.0767H160.889Z" fill="white" stroke="#231F20" stroke-linejoin="bevel"/>
<path d="M161.51 63.2705C161.311 64.2142 161.112 65.158 160.889 66.0769H157.114C157.338 65.158 157.536 64.2142 157.735 63.2705H161.51Z" fill="white" stroke="#231F20" stroke-linejoin="bevel"/>
<path d="M163 47.4998C163 53.0381 162.454 58.328 161.485 63.2453H157.71C158.679 58.328 159.225 53.0381 159.225 47.4998C159.225 34.362 156.22 22.5156 151.352 14.1213H155.127C159.995 22.5156 163 34.362 163 47.4998Z" fill="white" stroke="#231F20" stroke-linejoin="bevel"/>
<path d="M155.152 14.1215H151.377C146.857 6.27359 140.747 1.45557 134.017 1.45557H137.792C144.522 1.45557 150.632 6.27359 155.152 14.1215Z" fill="white" stroke="#231F20" stroke-linejoin="bevel"/>
<path d="M151.352 14.1215C146.832 6.27359 140.723 1.45557 133.992 1.45557H26.158C12.2503 1.4804 1 22.0688 1 47.5C1 72.9312 12.2752 93.5196 26.1829 93.5196C26.8286 93.5196 27.4743 93.4699 28.12 93.3954C36.3653 92.253 43.493 83.8835 47.6156 71.7391C47.9633 70.7457 48.2862 69.7275 48.5842 68.6596C49.2796 66.2506 49.8508 63.6925 50.2978 61.06H109.927C113.106 79.8602 122.692 93.5196 134.017 93.5196C134.638 93.5196 135.259 93.4699 135.855 93.3954C145.392 92.1537 153.438 81.2758 157.114 66.0519C157.337 65.133 157.536 64.1892 157.735 63.2455C158.703 58.3281 159.25 53.0382 159.25 47.5C159.25 34.3622 156.245 22.5158 151.377 14.1215H151.352ZM26.2077 27.1103C25.6613 27.1103 25.1398 27.011 24.6679 26.8123C24.1961 27.011 23.6745 27.1103 23.1281 27.1103C20.595 27.1103 18.5336 25.049 18.5336 22.5158C18.5336 19.9826 20.595 17.8965 23.1281 17.8965C23.6745 17.8965 24.1961 17.9958 24.6679 18.1945C25.1398 17.9958 25.6613 17.8965 26.2077 17.8965C28.7409 17.8965 30.8022 19.9578 30.8022 22.5158C30.8022 25.0738 28.7409 27.1103 26.2077 27.1103ZM39.0227 39.9253C38.4763 39.9253 37.9548 39.8259 37.4829 39.6272C37.011 39.8259 36.4895 39.9253 35.9431 39.9253C33.4099 39.9253 31.3486 37.8639 31.3486 35.3308C31.3486 32.7976 33.4099 30.7362 35.9431 30.7362C36.4895 30.7362 37.011 30.8356 37.4829 31.0343C37.9548 30.8356 38.4763 30.7362 39.0227 30.7362C41.5559 30.7362 43.6172 32.7976 43.6172 35.3308C43.6172 37.8639 41.5559 39.9253 39.0227 39.9253ZM138.165 33.9151H126.815V45.2648H116.161V33.9151H104.811V27.0855H116.161V15.7855H126.815V27.1103H138.165V33.94V33.9151Z" fill="white" stroke="#231F20" stroke-linejoin="bevel"/>
<path d="M126.816 15.7854H122.966V27.1102H126.816V15.7854Z" fill="white" stroke="#231F20" stroke-linejoin="bevel"/>
<path d="M126.816 33.9402H122.966V45.2899H126.816V33.9402Z" fill="white" stroke="#231F20" stroke-linejoin="bevel"/>
<path d="M138.19 27.1104H134.365V33.94H138.19V27.1104Z" fill="white" stroke="#231F20" stroke-linejoin="bevel"/>
<path d="M134.365 27.1102V33.9399H122.966V45.2896H116.186V33.9399H104.811V27.1102H116.186V15.7854H122.966V27.1102H134.365Z" fill="white" stroke="#231F20" stroke-linejoin="bevel"/>
<path d="M30.8269 22.5158C30.8269 25.049 28.7656 27.1103 26.2324 27.1103C25.686 27.1103 25.1645 27.011 24.6926 26.8123C26.4808 26.2163 27.7474 24.5026 27.7474 22.5158C27.7474 20.529 26.4808 18.7906 24.6926 18.1945C25.1645 17.9958 25.686 17.8965 26.2324 17.8965C28.7656 17.8965 30.8269 19.9578 30.8269 22.5158Z" fill="white" stroke="#231F20" stroke-linejoin="bevel"/>
<path d="M43.6167 35.3555C43.6167 37.8887 41.5554 39.95 39.0222 39.95C38.4758 39.95 37.9543 39.8507 37.4824 39.652C39.2706 39.0559 40.5371 37.3423 40.5371 35.3555C40.5371 33.3687 39.2706 31.6551 37.4824 31.059C37.9543 30.8603 38.4758 30.761 39.0222 30.761C41.5554 30.761 43.6167 32.8223 43.6167 35.3555Z" fill="white" stroke="#231F20" stroke-linejoin="bevel"/>
<path d="M27.7225 22.5158C27.7225 24.5026 26.4559 26.2163 24.6677 26.8123C24.1959 27.011 23.6743 27.1103 23.128 27.1103C20.5948 27.1103 18.5334 25.049 18.5334 22.5158C18.5334 19.9826 20.5948 17.8965 23.128 17.8965C23.6743 17.8965 24.1959 17.9958 24.6677 18.1945C26.4559 18.7906 27.7225 20.5042 27.7225 22.5158Z" fill="white" stroke="#231F20" stroke-linejoin="bevel"/>
<path d="M40.5372 35.3557C40.5372 37.3426 39.2706 39.0562 37.4824 39.6522C37.0106 39.8509 36.489 39.9502 35.9427 39.9502C33.4095 39.9502 31.3481 37.8889 31.3481 35.3557C31.3481 32.8226 33.4095 30.7612 35.9427 30.7612C36.489 30.7612 37.0106 30.8606 37.4824 31.0593C39.2706 31.6553 40.5372 33.3689 40.5372 35.3557Z" fill="white" stroke="#231F20" stroke-linejoin="bevel"/>
<path d="M155.326 14.1462H155.128" stroke="#231F20" stroke-linejoin="bevel"/>
<path d="M161.535 63.2705H161.485" stroke="#231F20" stroke-linejoin="bevel"/>
<path d="M160.964 66.0767H160.865" stroke="#231F20" stroke-linejoin="bevel"/>
<path d="M48.584 68.6597H52.3093" stroke="#231F20" stroke-linejoin="bevel"/>
<path d="M47.616 71.7639H51.1177" stroke="#231F20" stroke-linejoin="bevel"/>
</svg>
