<svg width="141" height="184" viewBox="0 0 141 184" fill="none" xmlns="http://www.w3.org/2000/svg">
<path d="M112.901 79.728V182.993H111.479V80.7575L112.901 79.728Z" fill="white" stroke="#231F20"/>
<path d="M111.479 80.7573V140.518H108.746V80.2981L109.723 81.0017L110.434 81.5127L111.479 80.7573Z" fill="white" stroke="#231F20"/>
<path d="M111.478 79.728V140.518H107.323V80.2983L108.745 81.3204L109.012 81.5129L109.723 81.0019L111.478 79.728Z" fill="white" stroke="#231F20"/>
<path d="M92.9697 1C92.7327 1 92.4957 1 92.2587 1.01481C66.4258 1.4814 45.5996 27.7512 45.5996 60.0941C45.5996 66.419 46.3995 72.5069 47.8659 78.2245C47.94 78.5133 48.0214 78.7947 48.0955 79.0836L52.2356 76.0989L52.9466 75.5878L60.449 81.0018L61.16 81.5128L68.6625 76.0989L69.3735 75.5878L73.3062 78.4244L76.8686 80.9944L77.4611 81.4239L77.5796 81.5128L85.0821 76.0989L85.7931 75.5878L93.2955 81.0018L94.0065 81.5128L101.509 76.0989L102.22 75.5878L108.745 80.2982L109.722 81.0018L110.433 81.5128L111.478 80.7574L112.9 79.7353L117.936 76.0989L118.647 75.5878L126.149 81.0018L126.86 81.5128L134.363 76.0989L135.074 75.5878L136.963 76.9506L138.17 77.8171C139.577 72.2254 140.34 66.2709 140.34 60.0941C140.34 27.455 119.128 1 92.9697 1ZM73.3062 26.8699C73.0618 26.8699 72.8248 26.8402 72.5952 26.7884C70.6326 26.3736 69.1439 24.2629 69.1439 21.7226C69.1439 19.1822 70.6326 17.0641 72.5952 16.6493C72.8248 16.5975 73.0618 16.5678 73.3062 16.5678C75.6021 16.5678 77.4611 18.8712 77.4611 21.7226C77.4611 24.5739 75.6021 26.8699 73.3062 26.8699ZM108.175 26.8699C107.93 26.8699 107.693 26.8402 107.464 26.7884C105.508 26.3736 104.02 24.2629 104.02 21.7226C104.02 19.1822 105.508 17.0641 107.464 16.6493C107.693 16.5975 107.93 16.5678 108.175 16.5678C110.478 16.5678 112.337 18.8712 112.337 21.7226C112.337 24.5739 110.478 26.8699 108.175 26.8699Z" fill="white" stroke="#231F20"/>
<path d="M77.4607 21.7153C77.4607 24.5592 75.6018 26.8626 73.3058 26.8626C71.0099 26.8626 69.1436 24.5592 69.1436 21.7153C69.1436 18.8713 71.0025 16.5605 73.3058 16.5605C75.6092 16.5605 77.4607 18.8639 77.4607 21.7153Z" fill="white" stroke="#231F20"/>
<path d="M112.337 21.7153C112.337 24.5592 110.478 26.8626 108.175 26.8626C105.872 26.8626 104.02 24.5592 104.02 21.7153C104.02 18.8713 105.879 16.5605 108.175 16.5605C110.471 16.5605 112.337 18.8639 112.337 21.7153Z" fill="white" stroke="#231F20"/>
<path d="M77.4607 21.7153C77.4607 24.5592 75.6018 26.8626 73.3058 26.8626C71.0099 26.8626 69.1436 24.5592 69.1436 21.7153C69.1436 18.8713 71.0025 16.5605 73.3058 16.5605C75.6092 16.5605 77.4607 18.8639 77.4607 21.7153Z" fill="white" stroke="#231F20"/>
<path d="M112.337 21.7153C112.337 24.5592 110.478 26.8626 108.175 26.8626C105.872 26.8626 104.02 24.5592 104.02 21.7153C104.02 18.8713 105.879 16.5605 108.175 16.5605C110.471 16.5605 112.337 18.8639 112.337 21.7153Z" fill="white" stroke="#231F20"/>
<path d="M77.4618 81.4239V140.518H73.3069V78.417L77.4618 81.4239Z" fill="white" stroke="#231F20"/>
<path d="M71.6476 140.518C52.9914 140.518 37.8605 155.642 37.8605 174.305V183H2.42188V174.305C2.42188 155.642 17.5527 140.518 36.209 140.518H71.6476Z" fill="white" stroke="#231F20"/>
<path d="M111.478 140.518V183H37.8601V174.305C37.8601 155.642 52.991 140.518 71.6472 140.518H111.478Z" fill="white" stroke="#231F20"/>
<path d="M91.5478 1C65.3891 1 44.1777 27.455 44.1777 60.0867C44.1777 66.73 45.0591 73.1142 46.6736 79.0762L51.5247 75.5805L59.7382 81.5054L67.9516 75.5805L71.8843 78.417L76.0392 81.4165L76.1577 81.5054L84.3712 75.5805L92.5847 81.5054L100.798 75.5805L107.323 80.2908L109.012 81.5054L111.478 79.7279L117.225 75.5805L125.439 81.5054L133.652 75.5805L136.748 77.8097C138.155 72.218 138.918 66.2635 138.918 60.0867C138.918 27.455 117.706 1 91.5478 1ZM71.8843 26.8699C69.581 26.8699 67.722 24.5665 67.722 21.7226C67.722 18.8786 69.581 16.5678 71.8843 16.5678C74.1877 16.5678 76.0392 18.8712 76.0392 21.7226C76.0392 24.5739 74.1803 26.8699 71.8843 26.8699ZM106.753 26.8699C104.457 26.8699 102.598 24.5665 102.598 21.7226C102.598 18.8786 104.457 16.5678 106.753 16.5678C109.049 16.5678 110.915 18.8712 110.915 21.7226C110.915 24.5739 109.056 26.8699 106.753 26.8699Z" fill="white" stroke="#231F20"/>
<path d="M76.0388 21.7153C76.0388 24.5592 74.1799 26.8626 71.884 26.8626C69.588 26.8626 67.7217 24.5592 67.7217 21.7153C67.7217 18.8713 69.5806 16.5605 71.884 16.5605C74.1873 16.5605 76.0388 18.8639 76.0388 21.7153Z" fill="white" stroke="#231F20"/>
<path d="M110.915 21.7153C110.915 24.5592 109.056 26.8626 106.753 26.8626C104.45 26.8626 102.598 24.5592 102.598 21.7153C102.598 18.8713 104.457 16.5605 106.753 16.5605C109.049 16.5605 110.915 18.8639 110.915 21.7153Z" fill="white" stroke="#231F20"/>
<path d="M76.0388 21.7153C76.0388 24.5592 74.1799 26.8626 71.884 26.8626C69.588 26.8626 67.7217 24.5592 67.7217 21.7153C67.7217 18.8713 69.5806 16.5605 71.884 16.5605C74.1873 16.5605 76.0388 18.8639 76.0388 21.7153Z" fill="white" stroke="#231F20"/>
<path d="M110.915 21.7153C110.915 24.5592 109.056 26.8626 106.753 26.8626C104.45 26.8626 102.598 24.5592 102.598 21.7153C102.598 18.8713 104.457 16.5605 106.753 16.5605C109.049 16.5605 110.915 18.8639 110.915 21.7153Z" fill="white" stroke="#231F20"/>
<path d="M76.0399 81.4239V140.518H71.885V78.417L76.0399 81.4239Z" fill="white" stroke="#231F20"/>
<path d="M70.2258 140.518C51.5695 140.518 36.4387 155.642 36.4387 174.305V183H1V174.305C1 155.642 16.1309 140.518 34.7871 140.518H70.2258Z" fill="white" stroke="#231F20"/>
<path d="M46.6738 79.0762H48.0958" stroke="#231F20"/>
<path d="M59.7385 81.5129H61.1605" stroke="#231F20"/>
<path d="M76.1584 81.5129H77.4619" stroke="#231F20"/>
<path d="M92.5852 81.5129H94.0072" stroke="#231F20"/>
<path d="M125.439 81.5129H126.861" stroke="#231F20"/>
<path d="M136.749 77.8171H138.171" stroke="#231F20"/>
<path d="M109.012 81.5129H110.434" stroke="#231F20"/>
<path d="M12.8872 152.109C14.6943 152.316 22.6412 153.42 28.6476 160.426C35.3428 168.239 34.4911 177.408 34.3208 178.956" stroke="#231F20"/>
<path d="M47.1708 140.518H44.7786V159.3H47.1708V140.518Z" stroke="#231F20"/>
<path d="M51.5543 140.518H49.1621V159.3H51.5543V140.518Z" stroke="#231F20"/>
<path d="M42.7862 140.518H40.394V159.3H42.7862V140.518Z" stroke="#231F20"/>
<path d="M111.478 140.518V183H36.4382V174.305C36.4382 155.642 51.5691 140.518 70.2253 140.518H111.478Z" fill="white" stroke="#231F20"/>
<path d="M1 178.964H111.478" stroke="#231F20"/>
<path d="M48.6663 152.109C50.4734 152.316 58.4202 153.42 64.4267 160.426C71.1219 168.239 70.2702 177.408 70.0998 178.956" stroke="#231F20"/>
<path d="M88.371 140.518H85.9788V159.3H88.371V140.518Z" stroke="#231F20"/>
<path d="M92.7552 140.518H90.363V159.3H92.7552V140.518Z" stroke="#231F20"/>
<path d="M83.9781 140.518H81.5859V159.3H83.9781V140.518Z" stroke="#231F20"/>
<path d="M71.6475 108.242H77.4613" stroke="#231F20"/>
<path d="M71.885 106.983H77.4619" stroke="#231F20"/>
<path d="M71.6475 105.598H77.4613" stroke="#231F20"/>
<path d="M107.205 108.242H113.019" stroke="#231F20"/>
<path d="M107.442 106.983H113.019" stroke="#231F20"/>
<path d="M107.205 105.598H113.019" stroke="#231F20"/>
<path d="M136.095 54.7046L121.726 47.0867L114.108 61.4563L128.477 69.0742L136.095 54.7046Z" stroke="#231F20"/>
<path d="M118.773 48.2368L122.499 50.6957" stroke="#231F20"/>
<path d="M118.907 49.8142L121.869 51.8287" stroke="#231F20"/>
<path d="M128.357 66.4561L130.69 67.3374" stroke="#231F20"/>
<path d="M129.113 64.8784L131.446 66.8929" stroke="#231F20"/>
<path d="M115.878 63.9304L117.893 61.5974" stroke="#231F20"/>
</svg>
