<svg width="177" height="148" viewBox="0 0 177 148" fill="none" xmlns="http://www.w3.org/2000/svg">
<path d="M97.2839 93.2992H81.9731V131.689H97.2839V93.2992Z" fill="white" stroke="#231F20" stroke-linejoin="bevel"/>
<path d="M141.392 29.067C141.235 39.3727 138.837 49.0006 134.701 57.3598C132.789 57.5684 130.738 57.7422 128.566 57.8464L129.001 66.5185C129.001 66.5185 129.105 66.5185 129.157 66.5011C123.022 74.8777 114.924 81.2558 105.678 84.7142V84.2971H73.5793V84.7142C64.3338 81.2558 56.2352 74.8777 50.1178 66.5011C50.1874 66.5185 50.2395 66.5185 50.309 66.5185L50.7435 57.8464C48.5537 57.7422 46.503 57.5684 44.574 57.3598C40.4552 49.018 38.0395 39.4248 37.8657 29.1886C39.2039 26.408 39.1865 23.0191 38.2828 20.0474C38.2828 20.0474 38.2828 20.0416 38.2828 20.03C38.7173 16.224 39.4646 12.5397 40.4899 8.99438H138.768C139.81 12.5744 140.558 16.2935 140.992 20.1516C140.14 23.0713 140.123 26.3559 141.392 29.067Z" fill="white" stroke="#231F20" stroke-linejoin="bevel"/>
<path d="M147.873 1.67773H31.3826V8.99424H147.873V1.67773Z" fill="white" stroke="#231F20" stroke-linejoin="bevel"/>
<path d="M50.7434 57.8464L50.3089 66.5185C50.3089 66.5185 50.1873 66.5185 50.1178 66.5011C25.7699 65.2672 12.8748 57.69 5.64519 40.4328C2.88195 33.8635 3.03836 26.5818 6.06228 20.4818C8.65174 15.2508 13.0486 11.4795 18.1232 10.1587C24.5534 8.47299 33.4166 10.6106 37.0662 17.1103C37.5702 17.9966 37.9873 18.9872 38.2827 20.0299C38.2827 20.0299 38.2827 20.0357 38.2827 20.0473C39.1864 23.0191 39.2038 26.408 37.8656 29.1712C37.3964 30.1792 36.736 31.0829 35.9018 31.865C34.4072 33.2379 32.4434 34.0895 30.1842 34.3154L29.3326 25.6607C29.8366 25.6086 29.993 25.4869 29.993 25.4869C30.3753 25.1393 30.3927 22.9496 29.489 21.3681C28.064 18.8134 23.389 17.7533 20.313 18.5527C17.6714 19.2479 15.3252 21.3507 13.848 24.3399C11.9363 28.1806 11.8842 32.8208 13.6569 37.0786C18.2101 47.923 25.1964 55.2048 44.5739 57.3598C46.5029 57.5683 48.5537 57.7421 50.7434 57.8464Z" fill="white" stroke="#231F20" stroke-miterlimit="10"/>
<path d="M173.663 40.4328C166.434 57.7074 153.521 65.2672 129.156 66.5011C129.104 66.5185 129.052 66.5185 129 66.5185L128.565 57.8464C130.738 57.7421 132.788 57.5683 134.7 57.3598C154.112 55.2222 161.098 47.923 165.652 37.0786C167.424 32.8208 167.355 28.1806 165.461 24.3399C163.983 21.3507 161.62 19.2479 158.978 18.5527C155.92 17.7533 151.245 18.8134 149.82 21.3681C148.916 22.9496 148.933 25.1393 149.316 25.4869C149.316 25.4869 149.472 25.6086 149.959 25.6607L149.124 34.3154C146.865 34.0895 144.901 33.2379 143.407 31.865C142.538 31.0482 141.86 30.1097 141.391 29.0843C140.122 26.3559 140.14 23.0712 140.991 20.169C141.304 19.0741 141.721 18.0314 142.242 17.1103C145.875 10.6106 154.738 8.47299 161.185 10.1587C166.26 11.4795 170.657 15.2508 173.246 20.4818C176.27 26.5818 176.409 33.8635 173.663 40.4328Z" fill="white" stroke="#231F20" stroke-miterlimit="10"/>
<path d="M105.678 84.2969H73.5789V93.2991H105.678V84.2969Z" fill="white" stroke="#231F20" stroke-miterlimit="10"/>
<path d="M135.223 131.689H45.0786V136.051H135.223V131.689Z" fill="white" stroke="#231F20" stroke-miterlimit="10"/>
<path d="M138.993 136.225H40.2637V147H138.993V136.225Z" fill="white" stroke="#231F20" stroke-miterlimit="10"/>
<path d="M94.5208 92.6041H79.21V130.994H94.5208V92.6041Z" fill="white" stroke="#231F20" stroke-linejoin="bevel"/>
<path d="M138.629 28.3893C138.472 38.6949 136.074 48.3228 131.938 56.6821C130.026 56.8906 127.975 57.0644 125.803 57.1687L126.237 65.8408C126.237 65.8408 126.342 65.8408 126.394 65.8234C120.259 74.2 112.161 80.578 102.915 84.0364V83.6193H70.8161V84.0364C61.5706 80.578 53.472 74.2 47.3547 65.8234C47.4242 65.8408 47.4763 65.8408 47.5458 65.8408L47.9803 57.1687C45.7906 57.0644 43.7398 56.8906 41.8108 56.6821C37.692 48.3402 35.2763 38.7471 35.1025 28.5109C36.4407 25.7303 36.4233 22.3414 35.5196 19.3696C35.5196 19.3696 35.5196 19.3638 35.5196 19.3522C35.9541 15.5463 36.7014 11.8619 37.7268 8.31665H136.004C137.047 11.8967 137.794 15.6158 138.229 19.4739C137.377 22.3935 137.36 25.6782 138.629 28.3893Z" fill="white" stroke="#231F20" stroke-linejoin="bevel"/>
<path d="M145.11 1H28.6194V8.31651H145.11V1Z" fill="white" stroke="#231F20" stroke-linejoin="bevel"/>
<path d="M47.9796 57.1687L47.5451 65.8407C47.5451 65.8407 47.4234 65.8407 47.3539 65.8233C23.0061 64.5894 10.111 57.0122 2.88136 39.755C0.118114 33.1858 0.257146 25.904 3.29845 19.8041C5.8879 14.573 10.2848 10.8018 15.3594 9.481C21.7896 7.79525 30.6528 9.93286 34.3024 16.4326C34.8064 17.3189 35.2235 18.3095 35.5189 19.3522C35.5189 19.3522 35.5189 19.358 35.5189 19.3696C36.4226 22.3414 36.44 25.7303 35.1018 28.4935C34.6326 29.5015 33.9722 30.4052 33.138 31.1872C31.6434 32.5602 29.6796 33.4117 27.4203 33.6377L26.5688 24.983C27.0728 24.9308 27.2292 24.8092 27.2292 24.8092C27.6115 24.4616 27.6289 22.2719 26.7252 20.6904C25.3001 18.1357 20.6252 17.0756 17.5491 17.875C14.9075 18.5702 12.5614 20.673 11.0842 23.6622C9.17251 27.5029 9.12038 32.1431 10.893 36.4009C15.4463 47.2453 22.4326 54.5271 41.8101 56.682C43.7391 56.8906 45.7898 57.0644 47.9796 57.1687Z" fill="white" stroke="#231F20" stroke-miterlimit="10"/>
<path d="M170.9 39.7374C163.671 57.0121 150.758 64.5719 126.393 65.8058C126.341 65.8231 126.289 65.8231 126.236 65.8231L125.802 57.1511C127.974 57.0468 130.025 56.873 131.937 56.6645C151.349 54.5269 158.335 47.2277 162.889 36.3833C164.661 32.1255 164.592 27.4853 162.697 23.6446C161.22 20.6554 158.857 18.5526 156.215 17.8574C153.156 17.058 148.481 18.1181 147.056 20.6728C146.153 22.2543 146.17 24.444 146.552 24.7916C146.552 24.7916 146.709 24.9133 147.195 24.9654L146.361 33.6201C144.102 33.3941 142.138 32.5426 140.644 31.1697C139.775 30.3528 139.097 29.4144 138.628 28.389C137.359 25.6605 137.376 22.3759 138.228 19.4737C138.541 18.3788 138.958 17.3361 139.479 16.415C143.111 9.91528 151.975 7.77768 158.422 9.46343C163.497 10.7842 167.894 14.5554 170.483 19.7865C173.507 25.8865 173.646 33.1682 170.9 39.7374Z" fill="white" stroke="#231F20" stroke-miterlimit="10"/>
<path d="M102.914 83.6019H70.8157V92.6042H102.914V83.6019Z" fill="white" stroke="#231F20" stroke-miterlimit="10"/>
<path d="M132.458 130.994H42.3137V135.356H132.458V130.994Z" fill="white" stroke="#231F20" stroke-miterlimit="10"/>
<path d="M136.23 135.53H37.5005V146.305H136.23V135.53Z" fill="white" stroke="#231F20" stroke-miterlimit="10"/>
<path d="M99.6481 57.8984V62.7992H72.8151V57.8984H84.0592V24.0096C83.6421 24.6352 82.9296 25.3304 81.9216 26.0603C80.9136 26.8076 79.7666 27.4854 78.4806 28.111C77.1945 28.7366 75.9085 29.2754 74.6398 29.6925C73.3712 30.1096 72.2068 30.3181 71.1641 30.3181V25.0871C72.3806 25.0871 73.7014 24.7395 75.1265 24.0617C76.5515 23.3839 77.9245 22.5845 79.2452 21.6808C80.566 20.7771 81.6783 19.9429 82.5646 19.1435C83.4683 18.3441 83.9549 17.8227 84.0766 17.562H89.6204V57.8636H99.6828L99.6481 57.8984Z" stroke="#231F20"/>
</svg>
